{"title":"Game.Of.Death.2010.DVDRiP.USCATOR","uid":6047349,"size":697442500,"categoryP":"video","categoryS":"movies","magnet":"?xt=urn:btih:8316d6862a808b2f2a25dd8c966bcda7dcaf95fd&amp;dn=Game.Of.Death.2010.DVDRiP.USCATOR&amp;tr=udp%3A%2F%2Ftracker.openbittorrent.com%3A80&amp;tr=udp%3A%2F%2Fopen.demonii.com%3A1337&amp;tr=udp%3A%2F%2Ftracker.coppersurfer.tk%3A6969&amp;tr=udp%3A%2F%2Fexodus.desync.com%3A6969","seeders":0,"leechers":1,"uploader":"goulddragon","files":3,"time":1292610589,"description":" &lt;a href=&quot;http://www.filmofilia.com/wp-content/uploads/2010/01/Game-of-Death_poster-535x791.jpg&quot; rel=&quot;nofollow&quot; target=&quot;_NEW&quot;&gt;http://www.filmofilia.com/wp-content/uploads/2010/01/Game-of-Death_poster-535x791.jpg&lt;/a&gt;\n\nVideo\nID                               : 0\nFormat                           : MPEG-4 Visual\nFormat profile                   : Advanced Simple@L5\nFormat settings, BVOP            : Yes\nFormat settings, QPel            : No\nFormat settings, GMC             : No warppoints\nFormat settings, Matrix          : Default (H.263)\nMuxing mode                      : Packed bitstream\nCodec ID                         : XVID\nCodec ID/Hint                    : XviD\nDuration                         : 1h 22mn\nBit rate                         : 1 917 Kbps\nWidth                            : 720 pixels\nHeight                           : 304 pixels\nDisplay aspect ratio             : 2.35\nFrame rate                       : 25.000 fps\nResolution                       : 24 bits\nColorimetry                      : 4:2:0\nScan type                        : Progressive\nBits/(Pixel*Frame)               : 0.350\nStream size                      : 1.10 GiB (81%)\nWriting library                  : XviD 1.1.2 (UTC 2006-11-01)\n\nAudio\nID                               : 1\nFormat                           : AC-3\nFormat/Info                      : Audio Coding 3\nCodec ID                         : 2000\nDuration                         : 1h 22mn\nBit rate mode                    : Constant\nBit rate                         : 448 Kbps\nChannel(s)                       : 6 channels\nChannel positions                : Front: L C R, Surround: L R, LFE\nSampling rate                    : 48.0 KHz\nStream size                      : 264 MiB (19%)\nAlignment                        : Aligned on interleaves\nInterleave, duration             : 40 ms (1.00 video frame)\nInterleave, preload duration     : 512 ms\n\n\n &lt;a href=&quot;\nhttp://img827.imageshack.us/img827/9692/vlcsnap349577.png&quot; rel=&quot;nofollow&quot; target=&quot;_NEW&quot;&gt;\nhttp://img827.imageshack.us/img827/9692/vlcsnap349577.png&lt;/a&gt; &lt;a href=&quot;\nhttp://img375.imageshack.us/img375/4558/vlcsnap351053.png&quot; rel=&quot;nofollow&quot; target=&quot;_NEW&quot;&gt;\nhttp://img375.imageshack.us/img375/4558/vlcsnap351053.png&lt;/a&gt; &lt;a href=&quot;\nhttp://img219.imageshack.us/img219/5374/vlcsnap355518.png&quot; rel=&quot;nofollow&quot; target=&quot;_NEW&quot;&gt;\nhttp://img219.imageshack.us/img219/5374/vlcsnap355518.png&lt;/a&gt; &lt;a href=&quot;\nhttp://img258.imageshack.us/img258/3675/vlcsnap353253.png&quot; rel=&quot;nofollow&quot; target=&quot;_NEW&quot;&gt;\nhttp://img258.imageshack.us/img258/3675/vlcsnap353253.png&lt;/a&gt;","torrent":{"xt":"urn:btih:8316d6862a808b2f2a25dd8c966bcda7dcaf95fd","amp;dn":"Game.Of.Death.2010.DVDRiP.USCATOR","amp;tr":["udp%3A%2F%2Ftracker.openbittorrent.com%3A80","udp%3A%2F%2Fopen.demonii.com%3A1337","udp%3A%2F%2Ftracker.coppersurfer.tk%3A6969","udp%3A%2F%2Fexodus.desync.com%3A6969"],"infoHash":"8316d6862a808b2f2a25dd8c966bcda7dcaf95fd","infoHashBuffer":{"type":"Buffer","data":[131,22,214,134,42,128,139,47,42,37,221,140,150,107,205,167,220,175,149,253]},"announce":[],"urlList":[]}}